<svg width="222" height="710" viewBox="0 0 222 710" fill="none" xmlns="http://www.w3.org/2000/svg">
<rect x="157" y="29.3993" width="74.7012" height="17.2106" transform="rotate(-23.1765 157 29.3993)" fill="#7F8CFF"/>
<path d="M259.207 50.4102C255.738 44.3222 250.869 39.1274 244.993 35.2465C239.117 31.3656 232.4 28.9076 225.384 28.0715C218.369 27.2355 211.253 28.0448 204.613 30.4341C197.973 32.8234 191.995 36.7255 187.163 41.8243C182.332 46.9232 178.782 53.0755 176.803 59.7832C174.823 66.4909 174.468 73.5653 175.767 80.4338C177.066 87.3022 179.983 93.7716 184.281 99.3181C188.579 104.865 194.137 109.332 200.505 112.359L208.894 95.101C205.266 93.3765 202.099 90.8312 199.651 87.6714C197.202 84.5116 195.541 80.826 194.801 76.9131C194.06 73.0001 194.263 68.9698 195.39 65.1485C196.518 61.3271 198.54 57.8221 201.293 54.9173C204.046 52.0125 207.451 49.7895 211.234 48.4283C215.017 47.0672 219.071 46.606 223.067 47.0824C227.064 47.5587 230.891 48.959 234.239 51.1699C237.586 53.3809 240.36 56.3404 242.336 59.8087L259.207 50.4102Z" fill="white"/>
<circle cx="10.5" cy="44.4999" r="10.5" fill="#7F8CFF"/>
<rect width="76.175" height="13.6273" transform="matrix(0.801365 0.598176 0.598176 -0.801365 105.805 653.889)" fill="#7F8CFF"/>
<circle cx="122.228" cy="687.219" r="15.5552" transform="rotate(48.9435 122.228 687.219)" fill="white"/>
</svg>
